<svg version="1.1" xmlns="http://www.w3.org/2000/svg" viewBox="0 0 338 190.5" width="338" height="190.5" class="excalidraw-svg">
  <!-- svg-source:excalidraw -->
  
  <defs>
    <style class="style-fonts">
      @font-face {
        font-family: "Virgil";
        src: url("https://excalidraw.com/Virgil.woff2");
      }
      @font-face {
        font-family: "Cascadia";
        src: url("https://excalidraw.com/Cascadia.woff2");
      }
      @font-face {
        font-family: "Assistant";
        src: url("https://excalidraw.com/Assistant-Regular.woff2");
      }
    </style>
    
  </defs>
  <g stroke-linecap="round" transform="translate(10 11.5) rotate(0 90 84.5)"><path d="M98.84 0.72 C110.22 0.43, 122.1 4.76, 132.71 10.36 C143.32 15.96, 155.13 25, 162.5 34.32 C169.88 43.63, 174.21 55.26, 176.97 66.26 C179.74 77.25, 181.31 89.28, 179.09 100.31 C176.87 111.34, 170.94 123, 163.65 132.43 C156.36 141.86, 145.71 151.03, 135.35 156.88 C125 162.73, 113.52 166.01, 101.49 167.55 C89.47 169.08, 74.87 169.24, 63.2 166.11 C51.54 162.98, 40.66 156.53, 31.5 148.77 C22.35 141.02, 13.46 129.99, 8.28 119.58 C3.09 109.17, 0.59 97.74, 0.4 86.32 C0.21 74.9, 2.37 61.53, 7.13 51.07 C11.9 40.62, 20.17 31.5, 28.99 23.61 C37.81 15.73, 47.65 7.43, 60.05 3.77 C72.45 0.11, 95.28 1.57, 103.4 1.64 C111.52 1.72, 108.96 3.03, 108.76 4.2 M126.58 8.26 C137.87 11.73, 151.2 19.41, 159.25 27.8 C167.3 36.19, 171.57 47.52, 174.88 58.58 C178.2 69.64, 180.57 82.7, 179.16 94.15 C177.74 105.61, 172.45 117.55, 166.38 127.31 C160.3 137.07, 152.37 145.93, 142.7 152.72 C133.03 159.51, 120.31 165.61, 108.36 168.07 C96.42 170.54, 83.03 170.33, 71.03 167.52 C59.03 164.7, 46.21 157.96, 36.39 151.17 C26.57 144.39, 17.93 136.75, 12.12 126.79 C6.31 116.83, 2.73 103.17, 1.51 91.41 C0.3 79.66, 0.82 66.86, 4.83 56.27 C8.83 45.68, 17.25 36.3, 25.57 27.86 C33.89 19.41, 44 10.4, 54.75 5.6 C65.5 0.79, 78.03 -1.36, 90.06 -0.98 C102.09 -0.61, 120.84 6.29, 126.91 7.84 C132.97 9.38, 127.05 7.14, 126.43 8.29" stroke="#E1E1E1" stroke-width="2" fill="none"></path></g><g stroke-linecap="round" transform="translate(148 10) rotate(0 90 84.5)"><path d="M79.93 1.4 C91.19 -1.19, 105.86 0.34, 117.6 3.61 C129.34 6.87, 141.38 13.15, 150.36 21.01 C159.35 28.88, 166.54 40.23, 171.51 50.79 C176.48 61.34, 180.02 73.1, 180.17 84.34 C180.32 95.59, 177.29 107.91, 172.39 118.26 C167.49 128.61, 159.72 138.61, 150.76 146.43 C141.79 154.24, 130.27 161.37, 118.6 165.15 C106.93 168.93, 93.01 170.31, 80.72 169.11 C68.43 167.91, 55.32 163.89, 44.85 157.97 C34.39 152.05, 25.16 142.95, 17.93 133.59 C10.7 124.23, 4.11 112.94, 1.47 101.82 C-1.17 90.69, -0.59 78.09, 2.08 66.85 C4.75 55.61, 10.53 43.58, 17.49 34.38 C24.45 25.18, 32.29 17.36, 43.86 11.66 C55.44 5.96, 78.86 1.81, 86.94 0.18 C95.01 -1.45, 92.44 0.38, 92.32 1.89 M125.37 6.16 C136.4 9.07, 148.57 18.34, 156.75 26.71 C164.93 35.08, 170.5 45.57, 174.46 56.38 C178.42 67.18, 181.45 80.09, 180.52 91.54 C179.59 102.98, 175.26 114.66, 168.86 125.05 C162.45 135.44, 152.18 146.85, 142.09 153.88 C131.99 160.91, 119.81 165.22, 108.29 167.23 C96.76 169.24, 84.64 168.3, 72.92 165.92 C61.19 163.54, 48.2 159.25, 37.94 152.94 C27.67 146.63, 17.61 138.13, 11.32 128.06 C5.02 117.99, 1.12 104.22, 0.17 92.53 C-0.78 80.83, 1.89 68.46, 5.63 57.89 C9.37 47.32, 14.62 37.57, 22.62 29.12 C30.62 20.67, 42.67 12.16, 53.64 7.18 C64.6 2.19, 76.61 -0.68, 88.42 -0.79 C100.23 -0.9, 118.36 5.12, 124.49 6.51 C130.63 7.9, 125.58 5.93, 125.24 7.55" stroke="#E1E1E1" stroke-width="2" fill="none"></path></g><g stroke-linecap="round" transform="translate(88 88.5) rotate(0 12.5 13)"><path d="M10.14 -0.19 C12.51 -0.87, 15.91 0.46, 18.28 1.9 C20.65 3.34, 23.34 5.87, 24.34 8.43 C25.34 11, 25.18 14.71, 24.27 17.28 C23.36 19.85, 21.28 22.44, 18.88 23.86 C16.48 25.27, 12.48 26.15, 9.87 25.75 C7.25 25.35, 4.79 23.52, 3.19 21.45 C1.58 19.38, 0.3 16.09, 0.22 13.35 C0.14 10.61, 0.9 7.25, 2.72 5.01 C4.54 2.76, 9.48 0.73, 11.13 -0.15 C12.78 -1.02, 12.65 -0.54, 12.63 -0.23 M13.17 -0.22 C15.55 -0.38, 18.29 1.21, 20.35 3.12 C22.41 5.03, 25.07 8.43, 25.53 11.25 C25.99 14.07, 24.76 17.64, 23.14 20.04 C21.52 22.43, 18.28 24.82, 15.8 25.63 C13.31 26.45, 10.72 26.02, 8.22 24.93 C5.72 23.85, 2.16 21.5, 0.78 19.1 C-0.6 16.7, -0.67 13.32, -0.05 10.54 C0.56 7.76, 2.31 4.2, 4.47 2.4 C6.62 0.6, 11.43 0.21, 12.89 -0.26 C14.36 -0.74, 13.27 -0.82, 13.26 -0.46" stroke="none" stroke-width="0" fill="#0A2CB3"></path><path d="M9.08 0.6 C11.59 -0.24, 15.73 -0.15, 18.15 1.1 C20.58 2.36, 22.57 5.48, 23.62 8.12 C24.67 10.75, 25.21 14.36, 24.44 16.91 C23.67 19.46, 21.18 21.93, 19.01 23.43 C16.83 24.94, 13.94 26.21, 11.39 25.93 C8.85 25.65, 5.55 23.82, 3.73 21.75 C1.92 19.68, 0.73 16.22, 0.5 13.49 C0.26 10.75, 0.82 7.6, 2.33 5.36 C3.85 3.12, 8.28 0.85, 9.6 0.05 C10.92 -0.75, 10.22 0.22, 10.26 0.56 M10.94 -0.52 C13.51 -0.74, 17.66 1.21, 19.91 2.82 C22.16 4.43, 23.85 6.46, 24.43 9.13 C25.01 11.79, 24.41 16.3, 23.38 18.81 C22.34 21.32, 20.67 23.15, 18.22 24.19 C15.76 25.23, 11.21 25.7, 8.64 25.05 C6.08 24.4, 4.38 22.6, 2.83 20.3 C1.29 18.01, -0.7 13.92, -0.62 11.27 C-0.54 8.62, 1.39 6.2, 3.3 4.39 C5.21 2.58, 9.63 1.06, 10.85 0.4 C12.07 -0.26, 10.4 0.33, 10.61 0.41" stroke="#E1E1E1" stroke-width="2" fill="none"></path></g><g stroke-linecap="round" transform="translate(232.5 90.5) rotate(0 12.5 13)"><path d="M15.01 -0.08 C17.51 0.14, 20.08 2.19, 21.8 4.37 C23.51 6.55, 25.31 10.11, 25.32 13 C25.32 15.89, 23.65 19.55, 21.82 21.71 C19.99 23.87, 16.94 25.47, 14.35 25.95 C11.77 26.44, 8.62 26.04, 6.29 24.64 C3.97 23.25, 1.26 20.33, 0.43 17.6 C-0.4 14.87, 0.25 10.91, 1.31 8.27 C2.36 5.63, 4.39 3.14, 6.77 1.76 C9.15 0.39, 14.1 0.26, 15.59 0.03 C17.08 -0.19, 15.75 0.23, 15.72 0.42 M9.59 0.93 C11.91 0.18, 15.83 -0.06, 18.36 1.1 C20.88 2.26, 23.86 5.08, 24.74 7.87 C25.63 10.66, 24.66 15.12, 23.69 17.85 C22.72 20.58, 21.16 23.04, 18.92 24.25 C16.68 25.47, 12.9 25.6, 10.24 25.13 C7.59 24.66, 4.79 23.42, 3 21.44 C1.21 19.45, -0.59 16.08, -0.51 13.2 C-0.44 10.32, 1.74 6.31, 3.43 4.13 C5.12 1.94, 8.57 0.58, 9.62 0.09 C10.67 -0.41, 9.52 0.93, 9.73 1.15" stroke="none" stroke-width="0" fill="#AD0505"></path><path d="M13.07 0.1 C15.53 0.19, 19.11 2.05, 21.04 3.96 C22.98 5.87, 24.39 8.87, 24.67 11.57 C24.95 14.28, 24.15 17.95, 22.7 20.2 C21.26 22.44, 18.57 24.21, 15.99 25.05 C13.41 25.89, 9.7 26.34, 7.2 25.22 C4.7 24.11, 2.14 20.98, 1.01 18.37 C-0.12 15.77, -0.26 12.22, 0.44 9.59 C1.14 6.96, 2.93 4.22, 5.21 2.6 C7.48 0.99, 12.64 0.3, 14.09 -0.11 C15.55 -0.52, 14.05 -0.12, 13.93 0.14 M13.35 0.2 C16.02 0.17, 18.82 2.02, 20.81 3.83 C22.8 5.64, 24.98 8.37, 25.29 11.04 C25.59 13.71, 23.99 17.36, 22.64 19.84 C21.28 22.32, 19.51 25.08, 17.16 25.9 C14.8 26.72, 11.23 25.98, 8.53 24.75 C5.84 23.53, 2.29 20.96, 0.97 18.55 C-0.36 16.15, -0.11 13.05, 0.59 10.34 C1.28 7.63, 2.98 3.99, 5.15 2.29 C7.31 0.58, 12.25 0.42, 13.56 0.11 C14.87 -0.2, 13.22 0.16, 12.99 0.42" stroke="#E1E1E1" stroke-width="2" fill="none"></path></g><g stroke-linecap="round"><g transform="translate(167.4758178759334 41.73089857282321) rotate(0 1.6844772344916805 52.459433874169335)" fill-rule="evenodd"><path d="M1.85 -1.17 C3.17 0.91, 6.31 8.92, 9.41 14.9 C12.5 20.89, 18.46 28, 20.43 34.72 C22.41 41.43, 20.95 47.66, 21.23 55.2 C21.52 62.73, 25.27 71.83, 22.14 79.91 C19 87.98, 7.71 101.62, 2.41 103.64 C-2.89 105.65, -5.9 98.66, -9.66 91.99 C-13.43 85.33, -18.98 71.81, -20.16 63.65 C-21.34 55.49, -17.8 49.77, -16.75 43.04 C-15.7 36.31, -17.01 30.33, -13.87 23.26 C-10.73 16.2, -0.73 4.32, 2.11 0.67" stroke="none" stroke-width="0" fill="#FAB005" fill-rule="evenodd"></path><path d="M0.64 0.87 C2.63 3.03, 8.01 7.76, 11.16 12.94 C14.31 18.12, 17.62 24.83, 19.56 31.95 C21.49 39.06, 22.68 48.02, 22.76 55.62 C22.84 63.22, 23.39 69.43, 20.04 77.54 C16.68 85.65, 7.74 102.02, 2.64 104.28 C-2.46 106.53, -6.95 97.71, -10.55 91.06 C-14.15 84.42, -17.8 72.09, -18.98 64.38 C-20.16 56.67, -18.81 52.01, -17.64 44.82 C-16.47 37.63, -15.26 28.74, -11.98 21.24 C-8.7 13.74, -0.1 3.4, 2.05 -0.2 M-0.49 0.28 C1.39 2.08, 6.77 5.61, 10.01 11.04 C13.25 16.47, 16.73 25.78, 18.95 32.85 C21.18 39.92, 23.42 45.98, 23.34 53.46 C23.26 60.93, 21.67 68.85, 18.47 77.7 C15.28 86.55, 8.86 104.47, 4.17 106.56 C-0.51 108.66, -5.59 97.42, -9.64 90.28 C-13.68 83.14, -18.54 71.56, -20.11 63.73 C-21.69 55.9, -20.58 50.44, -19.06 43.32 C-17.54 36.2, -14.61 28.13, -10.99 21 C-7.37 13.87, 0.35 4.25, 2.65 0.56" stroke="#E1E1E1" stroke-width="2" fill="none"></path></g></g><mask></mask></svg>